<?xml version="1.0" encoding="UTF-8" standalone="no"?>
<svg
   version="1.1"
   width="256"
   height="256"
   viewBox="0 0 256 256"
   xml:space="preserve"
   id="svg1"
   sodipodi:docname="heart_full.svg"
   inkscape:version="1.4.2 (f4327f4, 2025-05-13)"
   xmlns:inkscape="http://www.inkscape.org/namespaces/inkscape"
   xmlns:sodipodi="http://sodipodi.sourceforge.net/DTD/sodipodi-0.dtd"
   xmlns:xlink="http://www.w3.org/1999/xlink"
   xmlns="http://www.w3.org/2000/svg"
   xmlns:svg="http://www.w3.org/2000/svg"><defs
   id="defs1"><linearGradient
     id="linearGradient3"
     inkscape:collect="always"><stop
       style="stop-color:#e5383a;stop-opacity:0.50196078;"
       offset="0"
       id="stop3" /><stop
       style="stop-color:#e5383a;stop-opacity:0;"
       offset="1"
       id="stop4" /></linearGradient><linearGradient
     inkscape:collect="always"
     xlink:href="#linearGradient3"
     id="linearGradient4"
     x1="-2.66904"
     y1="45.966776"
     x2="92.66904"
     y2="45.966776"
     gradientUnits="userSpaceOnUse" /></defs><sodipodi:namedview
   id="namedview1"
   pagecolor="#ffffff"
   bordercolor="#000000"
   borderopacity="0.25"
   inkscape:showpageshadow="2"
   inkscape:pageopacity="0.0"
   inkscape:pagecheckerboard="0"
   inkscape:deskcolor="#d1d1d1"
   inkscape:zoom="3.1835938"
   inkscape:cx="128"
   inkscape:cy="128"
   inkscape:window-width="1920"
   inkscape:window-height="1017"
   inkscape:window-x="-8"
   inkscape:window-y="-8"
   inkscape:window-maximized="1"
   inkscape:current-layer="svg1" />
<g
   style="opacity:1;fill:#e5383b;fill-opacity:1;fill-rule:nonzero;stroke:#e5383b;stroke-width:5.33808;stroke-linecap:butt;stroke-linejoin:miter;stroke-miterlimit:10;stroke-dasharray:none;stroke-opacity:1"
   transform="matrix(2.624149,0,0,2.8268052,9.9804372,-2.7375357)"
   id="g1">
	<path
   d="M 45,84.334 6.802,46.136 C 2.416,41.75 0,35.918 0,29.716 0,23.513 2.416,17.682 6.802,13.296 11.188,8.91 17.019,6.494 23.222,6.494 c 6.203,0 12.034,2.416 16.42,6.802 L 45,18.654 50.358,13.296 c 4.386,-4.386 10.218,-6.802 16.42,-6.802 6.203,0 12.034,2.416 16.42,6.802 v 0 0 C 87.585,17.682 90,23.513 90,29.716 c 0,6.203 -2.415,12.034 -6.802,16.42 z"
   style="opacity:1;fill:#e5383b;fill-opacity:1;fill-rule:nonzero;stroke:#e5383b;stroke-width:5.33808;stroke-linecap:butt;stroke-linejoin:miter;stroke-miterlimit:10;stroke-dasharray:none;stroke-opacity:1"
   stroke-linecap="round"
   id="path1"
   sodipodi:nodetypes="cssssscssscsscc" />
</g>
</svg>
