<?xml version="1.0" encoding="UTF-8" standalone="no"?>
<svg
   version="1.1"
   width="256"
   height="256"
   viewBox="0 0 256 256"
   xml:space="preserve"
   id="svg1"
   sodipodi:docname="heart.svg"
   inkscape:version="1.4.2 (f4327f4, 2025-05-13)"
   xmlns:inkscape="http://www.inkscape.org/namespaces/inkscape"
   xmlns:sodipodi="http://sodipodi.sourceforge.net/DTD/sodipodi-0.dtd"
   xmlns="http://www.w3.org/2000/svg"
   xmlns:svg="http://www.w3.org/2000/svg"><defs
   id="defs1" /><sodipodi:namedview
   id="namedview1"
   pagecolor="#ffffff"
   bordercolor="#000000"
   borderopacity="0.25"
   inkscape:showpageshadow="2"
   inkscape:pageopacity="0.0"
   inkscape:pagecheckerboard="0"
   inkscape:deskcolor="#d1d1d1"
   inkscape:zoom="3.1835938"
   inkscape:cx="128"
   inkscape:cy="128"
   inkscape:window-width="1920"
   inkscape:window-height="1017"
   inkscape:window-x="-8"
   inkscape:window-y="-8"
   inkscape:window-maximized="1"
   inkscape:current-layer="svg1" />
<g
   style="opacity:1;fill:#878787;fill-opacity:0;fill-rule:nonzero;stroke:#878787;stroke-width:5.33808;stroke-linecap:butt;stroke-linejoin:miter;stroke-miterlimit:10;stroke-dasharray:none;stroke-opacity:1"
   transform="matrix(2.624149,0,0,2.8268052,9.9804372,-2.7375357)"
   id="g1">
	<path
   d="M 45,84.334 6.802,46.136 C 2.416,41.75 0,35.918 0,29.716 0,23.513 2.416,17.682 6.802,13.296 11.188,8.91 17.019,6.494 23.222,6.494 c 6.203,0 12.034,2.416 16.42,6.802 L 45,18.654 50.358,13.296 c 4.386,-4.386 10.218,-6.802 16.42,-6.802 6.203,0 12.034,2.416 16.42,6.802 v 0 0 C 87.585,17.682 90,23.513 90,29.716 90,35.919 87.585,41.75 83.198,46.136 Z M 23.222,10.494 c -5.134,0 -9.961,2 -13.592,5.63 C 5.999,19.754 4,24.582 4,29.716 4,34.85 6,39.677 9.63,43.308 L 45,78.678 80.37,43.308 C 84.001,39.677 86,34.85 86,29.716 86,24.582 84.001,19.755 80.37,16.124 v 0 c -3.631,-3.63 -8.457,-5.63 -13.592,-5.63 -5.134,0 -9.961,2 -13.592,5.63 L 45,24.311 36.813,16.124 c -3.63,-3.63 -8.457,-5.63 -13.591,-5.63 z"
   style="opacity:1;fill:#878787;fill-opacity:0;fill-rule:nonzero;stroke:#878787;stroke-width:5.33808;stroke-linecap:butt;stroke-linejoin:miter;stroke-miterlimit:10;stroke-dasharray:none;stroke-opacity:1"
   stroke-linecap="round"
   id="path1" />
</g>
</svg>
