<?xml version="1.0" encoding="UTF-8" standalone="no"?>
<!--?xml version="1.0" encoding="UTF-8" standalone="no"?-->

<svg
   viewBox="0 0 17 16"
   version="1.1"
   class="si-glyph si-glyph-arrow-change"
   id="svg3"
   sodipodi:docname="si-glyph-arrow-change.svg"
   inkscape:version="1.4.2 (f4327f4, 2025-05-13)"
   xmlns:inkscape="http://www.inkscape.org/namespaces/inkscape"
   xmlns:sodipodi="http://sodipodi.sourceforge.net/DTD/sodipodi-0.dtd"
   xmlns="http://www.w3.org/2000/svg"
   xmlns:svg="http://www.w3.org/2000/svg">
  <sodipodi:namedview
     id="namedview3"
     pagecolor="#ffffff"
     bordercolor="#000000"
     borderopacity="0.25"
     inkscape:showpageshadow="2"
     inkscape:pageopacity="0.0"
     inkscape:pagecheckerboard="0"
     inkscape:deskcolor="#d1d1d1"
     inkscape:zoom="50.9375"
     inkscape:cx="8.4907975"
     inkscape:cy="8"
     inkscape:window-width="1920"
     inkscape:window-height="1017"
     inkscape:window-x="-8"
     inkscape:window-y="-8"
     inkscape:window-maximized="1"
     inkscape:current-layer="g2" />
  <!-- Generator: Sketch 3.0.3 (7891) - http://www.bohemiancoding.com/sketch -->
  <title
     id="title1">950</title>
  <defs
     id="defs1" />
  <g
     transform="translate(1)"
     fill="#434343"
     id="g2"
     style="fill-rule:evenodd;stroke:none;stroke-width:1">
    <g
       id="g3">
      <path
         d="m 1.539,8.001 c 0.828,0 1.379,-0.551 1.379,-1.379 L 2.914,6.187 c 0,0 -0.205,-1.233 1.44,-1.233 L 11.015,5 v 1.759 c 0.323,0.322 0.847,0.322 1.17,0 l 2.573,-2.572 c 0.322,-0.324 0.322,-0.848 0,-1.17 L 12.185,0.292 c -0.323,-0.322 -0.847,-0.322 -1.17,0 V 2.137 C 10.854,2.09 4.562,2.063 4.562,2.063 0.851,2.063 0.039,4.492 0.039,5.47 v 1.031 c 0,0.828 0.672,1.5 1.5,1.5 z"
         class="si-glyph-fill"
         id="path1"
         style="fill:#878787;fill-opacity:1" />
      <path
         d="m 13.5,8.042 c -0.828,0 -1.5,0.584 -1.5,1.412 l 0.002,0.957 c -0.045,0.357 -0.645,0.59 -1.525,0.59 H 3.938 L 3.936,9.442 C 3.614,9.12 3.09,9.12 2.766,9.442 l -2.572,2.572 c -0.322,0.324 -0.322,0.848 0,1.17 l 2.572,2.572 c 0.324,0.324 0.848,0.324 1.17,0 l 0.002,-1.851 h 6.539 C 14.188,13.905 15,11.463 15,10.484 V 9.453 C 15,8.626 14.328,8.042 13.5,8.042 Z"
         class="si-glyph-fill"
         id="path2"
         style="fill:#878787;fill-opacity:1" />
    </g>
  </g>
</svg>
